<?xml version="1.0" encoding="utf-8"?>
<!-- Generator: Adobe Illustrator 23.0.1, SVG Export Plug-In . SVG Version: 6.00 Build 0)  -->
<svg version="1.1" id="Layer_1" xmlns="http://www.w3.org/2000/svg" xmlns:xlink="http://www.w3.org/1999/xlink" x="0px" y="0px"
	 viewBox="0 0 400 539" style="enable-background:new 0 0 400 539;" xml:space="preserve">
<style type="text/css">
	.st0{fill:#01DBE9;}
</style>
<path class="st0" d="M335.5,505H297c-2.8,0-5.2-2.3-5.2-5.2l0,0c0-2.8,2.3-5.2,5.2-5.2h38.5c2.8,0,5.2,2.3,5.2,5.2l0,0
	C340.6,502.7,338.3,505,335.5,505z"/>
<g>
	<path class="st0" d="M270.2,458.6c-4.8,10.7-9.5,21.2-14.3,32c0.5,0,0.8,0,1.1,0c5.1,0,10.2,0,15.3,0c1.7,0,3,1.2,3.3,2.8
		c0.2,1.7-0.8,3.4-2.5,3.8c-0.5,0.1-1,0.1-1.4,0.1c-5.9,0-11.9,0-17.8,0c-0.7,0-1,0.2-1.3,0.8c-3.6,8.1-7.2,16.2-10.8,24.3
		c-0.8,1.7-2,2.5-3.7,2.3c-2.4-0.3-3.7-2.5-2.7-4.7c1.9-4.4,3.9-8.7,5.8-13.1c8.6-19.2,17.2-38.4,25.8-57.7c0.7-1.5,1.6-2.3,3.2-2.3
		c1.6,0,2.7,0.9,3.3,2.3c6,13.4,11.9,26.8,17.9,40.2c4.2,10.2,8.8,20.2,13.4,30.3c0.3,0.6,0.4,1.3,0.4,2c-0.2,1.7-1.3,2.7-2.9,3
		c-1.6,0.2-2.9-0.5-3.6-2.1c-1.9-4.2-3.8-8.5-5.6-12.7c-7.5-16.9-15-33.8-22.5-50.6C270.5,459.2,270.4,459,270.2,458.6z"/>
	<path class="st0" d="M76,458.6c-4.8,10.7-9.5,21.3-14.3,32c0.5,0,0.8,0,1.1,0c5,0,10.1,0,15.1,0c1.6,0,2.8,0.9,3.3,2.2
		c0.5,1.4,0.1,3-1.2,3.8c-0.7,0.5-1.7,0.7-2.5,0.7c-5.9,0.1-11.8,0.1-17.7,0c-0.8,0-1.2,0.2-1.5,1c-3.6,8.1-7.2,16.2-10.7,24.3
		c-0.7,1.7-2.1,2.4-3.7,2.2c-2.3-0.3-3.6-2.6-2.6-4.7c1.5-3.4,3-6.8,4.5-10.1c9-20.2,18.1-40.4,27.1-60.6c0.6-1.4,1.6-2.2,3.2-2.2
		c1.7,0,2.8,0.8,3.4,2.3c5.7,12.8,11.4,25.6,17.1,38.3c4.7,10.6,9.5,21.3,14.2,31.9c0.4,0.9,0.6,1.8,0.4,2.8c-0.4,1.5-1.5,2.3-3,2.4
		c-1.5,0.1-2.7-0.6-3.4-2c-2-4.5-4-9-6-13.4c-7.4-16.6-14.7-33.2-22.1-49.7C76.4,459.4,76.2,459.1,76,458.6z"/>
	<path class="st0" d="M358.2,499.6c0,12.5-9.4,23.3-21.7,25c-6.4,0.9-12.3-0.4-17.6-4.1c-1.9-1.3-2.2-3.5-0.6-5.1
		c1.1-1.2,2.7-1.4,4.3-0.4c2.3,1.5,4.7,2.6,7.4,3c8.3,1.3,16.3-2.9,19.9-10.4c5.4-11.4-1.9-24.6-14.3-26.2c-1.9-0.2-3.9-0.2-5.8-0.6
		c-7.9-1.6-13.5-8.9-13.3-17c0.2-8.6,6.3-15.4,14.8-16.6c6.8-1,14,2.8,17.2,9.1c1.3,2.5,2,5,2,7.8c0,1.9-1.4,3.4-3.1,3.4
		c-1.8,0.1-3.3-1.2-3.4-3.1c-0.1-2.3-0.6-4.5-2-6.4c-2.7-3.8-8-5.4-12.4-3.6c-4.4,1.8-7.1,6.4-6.4,11.1c0.8,5.4,4.9,9,10.5,9
		c10.9,0.2,20.7,7.5,23.8,17.9C357.9,494.8,358.2,497.2,358.2,499.6z"/>
	<path class="st0" d="M135.9,453.8c-10.1,0-20.1,0-30.2,0c-2.6,0-4.2-2.2-3.4-4.5c0.4-1.3,1.6-2.2,3-2.2c0.2,0,0.3,0,0.5,0
		c20.1,0,40.2,0,60.4,0c2.5,0,4.2,2.1,3.5,4.4c-0.4,1.3-1.5,2.2-2.9,2.3c-0.4,0-0.7,0-1.1,0C155.7,453.8,145.8,453.8,135.9,453.8z"
		/>
	<path class="st0" d="M132.6,493.5c0-9.2,0-18.4,0-27.7c0-1.6,0.8-2.8,2.1-3.3c1.3-0.5,2.8-0.1,3.8,0.9c0.7,0.8,0.9,1.7,0.9,2.7
		c0,13.6,0,27.3,0,40.9c0,4.8,0,9.6,0,14.4c0,1.6-0.9,2.8-2.3,3.3c-1.4,0.5-2.9,0.1-3.8-1.2c-0.4-0.7-0.7-1.6-0.7-2.4
		C132.6,511.9,132.6,502.7,132.6,493.5z"/>
	<path class="st0" d="M208,524.8c-4.5,0-9.1,0-13.6,0c-8.5,0-15.3-6.7-15.6-15.2c-0.1-2,1.4-3.6,3.2-3.6c2-0.1,3.4,1.3,3.5,3.3
		c0.2,5.2,3.9,8.8,9.2,8.8c9.2,0,18.4,0,27.6,0c2.1,0,3.7,1.6,3.7,3.3c0,2-1.5,3.4-3.7,3.4C217.6,524.9,212.8,524.8,208,524.8z"/>
	<path class="st0" d="M185.6,472.2c0,7.2,0,14.4,0,21.6c0,2-1.6,3.6-3.3,3.6c-2,0-3.4-1.5-3.4-3.6c0-14.4,0-28.7,0-43.1
		c0-1.7,0.8-2.9,2.3-3.4c1.3-0.5,2.9-0.1,3.6,1c0.4,0.7,0.7,1.5,0.8,2.3C185.6,457.8,185.6,465,185.6,472.2z"/>
	<path class="st0" d="M307.8,499c0.2-4.8,1.6-9.2,4.3-13.3c0.8-1.2,2-1.8,3.4-1.5c1.5,0.3,2.3,1.3,2.7,2.7c0.2,1-0.1,1.8-0.7,2.6
		c-2,3-3,6.3-3,9.9c0,0.5,0.1,1,0.1,1.4c0.2,1.8-1.1,3.6-2.8,3.9c-1.8,0.3-3.4-0.9-3.7-2.8C307.9,501,307.8,500,307.8,499z"/>
</g>
<g id="JK5FTG.tif">
	<g>
		<path d="M294.7,497.1l0.6-0.2c0.3,0,0.5,0.1,0.6,0.4c0.4,0.9,0.8,1.8,1.2,2.7c0.3-0.8,0.7-1.5,1-2.2c0-0.1,0.1-0.2,0.1-0.3
			c0.3-0.6,0.3-0.6,1.1-0.6c0.8,0,0.7-0.1,0.7,0.7c0,1.5,0,3.1,0,4.6c0,0.3-0.1,0.4-0.4,0.4c-0.4,0-0.8,0-1.2,0c0-0.9,0-1.7,0-2.5
			c0,0,0,0-0.1,0c-0.4,0.9-0.8,1.7-1.2,2.6c0,0-0.1,0-0.1,0L294.7,497.1"/>
		<path d="M307.5,496.9c0.9,0,1.8-0.1,2.7,0c1,0.1,1.8,0.6,2.1,1.6c0.2,0.7,0.3,1.3,0.1,2c-0.1,0.3-0.1,0.6-0.3,0.9
			c-0.3,0.7-1,1.1-1.7,1.1c-1,0.1-2,0-3,0C307.5,500.7,307.5,498.8,307.5,496.9z M309.1,499.8c0,0.4,0,0.8,0,1.1
			c0,0.3,0.1,0.4,0.4,0.4c0.2,0,0.3-0.1,0.5-0.1c0.3-0.1,0.6-0.2,0.6-0.5c0.1-0.3,0.1-0.7,0.1-1c0.1-0.9-0.5-1.4-1.4-1.3
			c-0.2,0-0.3,0.1-0.3,0.3C309.1,499,309.1,499.4,309.1,499.8z"/>
		<path d="M303.2,498.3c0,0.1,0,0.2,0,0.3c0,0.2,0.1,0.3,0.3,0.3c0.4,0,0.7,0,1.1,0c0.2,0,0.3,0.1,0.3,0.3c0,0.3,0,0.7,0,1
			c-0.6,0-1.1,0-1.7,0c0,0.3,0,0.6,0,1c0.9,0,1.9,0,2.8,0c0,0.4,0,0.8,0,1.2c0,0.1-0.2,0.2-0.3,0.2c-1,0-2,0-3,0c-0.4,0-0.8,0-1.2,0
			c0-0.2,0-0.3,0-0.4c0-1.7,0-3.3,0-5c0-0.3,0.1-0.4,0.4-0.4c1.2,0,2.4,0,3.6,0c0.3,0,0.4,0.1,0.4,0.4c0,0.2,0,0.4,0,0.6
			c0,0.3-0.1,0.4-0.4,0.4c-0.7,0-1.3,0-2,0C303.5,498.3,303.3,498.3,303.2,498.3z"/>
		<path d="M322.7,502.6c-0.6,0-1.1,0-1.7,0c-0.1,0-0.3-0.3-0.3-0.6c-0.1-0.3-0.2-0.4-0.5-0.4c-0.2,0-0.4,0-0.6,0
			c-0.7,0-0.7,0-0.9,0.7c-0.1,0.3-0.2,0.3-0.4,0.3c-0.4,0-0.9,0-1.4,0c0.2-0.5,0.3-0.9,0.4-1.3c0.3-0.9,0.6-1.7,0.9-2.6
			c0.2-0.6,0.4-1.1,0.6-1.7c0-0.1,0.2-0.2,0.3-0.2c0.3,0,0.5,0,0.8,0c0.6,0,0.7,0.1,0.8,0.6c0.2,0.8,0.5,1.5,0.8,2.2
			C322,500.7,322.4,501.6,322.7,502.6z M319.9,498.9C319.8,498.9,319.8,498.9,319.9,498.9c-0.2,0.5-0.3,0.9-0.4,1.4
			c0.3,0,0.5,0,0.8,0C320.1,499.8,320,499.4,319.9,498.9z"/>
		<path d="M314,502.6c0-0.1,0-0.2,0-0.3c0-1.7,0-3.3,0-5c0-0.3,0.1-0.4,0.4-0.4c0.3,0,0.7,0,1,0c0.1,0,0.2,0.1,0.2,0.2
			c0,1.8,0,3.6,0,5.5c0,0,0,0,0,0C315.1,502.6,314.6,502.6,314,502.6z"/>
	</g>
</g>
<circle cx="334.5" cy="500" r="3.3"/>
<path class="st0" d="M198,417C91,417,4,330,4,223S91,29,198,29c107,0,194,87,194,194S305,417,198,417z M198,37
	C95.4,37,12,120.4,12,223s83.4,186,186,186s186-83.4,186-186S300.6,37,198,37z"/>
</svg>
