<?xml version="1.0" encoding="utf-8"?>
<!-- Generator: Adobe Illustrator 23.0.1, SVG Export Plug-In . SVG Version: 6.00 Build 0)  -->
<svg version="1.1" id="Layer_1" xmlns="http://www.w3.org/2000/svg" xmlns:xlink="http://www.w3.org/1999/xlink" x="0px" y="0px"
	 viewBox="0 0 1330 400" style="enable-background:new 0 0 1330 400;" xml:space="preserve">
<style type="text/css">
	.st0{fill:#01DBE9;}
</style>
<g id="OrB6EH.tif">
</g>
<path class="st0" d="M201,392.2c-106.4,0-193-86.6-193-193s86.6-193,193-193s193,86.6,193,193S307.4,392.2,201,392.2z M201,23.2
	c-97,0-176,79-176,176c0,97,79,176,176,176s176-79,176-176C377,102.1,298,23.2,201,23.2z"/>
<path class="st0" d="M1241.8,252h-106.5c-7.8,0-14.2-6.4-14.2-14.2v0c0-7.8,6.4-14.2,14.2-14.2h106.5c7.8,0,14.2,6.4,14.2,14.2v0
	C1256,245.6,1249.6,252,1241.8,252z"/>
<g>
	<path class="st0" d="M1061.3,123.7c-13.2,29.6-26.3,58.8-39.6,88.5c1.3,0,2.2,0,3,0c14.1,0,28.2,0,42.2,0c4.6,0,8.4,3.4,9,7.8
		c0.7,4.8-2.3,9.4-6.8,10.6c-1.3,0.3-2.6,0.3-4,0.3c-16.4,0-32.8,0-49.2,0c-1.8,0-2.8,0.5-3.5,2.2c-9.9,22.5-19.9,44.9-29.8,67.3
		c-2.1,4.8-5.5,6.9-10.1,6.4c-6.6-0.8-10.2-6.9-7.5-13.1c5.3-12.1,10.7-24.2,16.1-36.3c23.8-53.1,47.6-106.3,71.3-159.5
		c1.8-4.1,4.6-6.3,9-6.2c4.5,0,7.5,2.4,9.2,6.4c16.5,37.1,33,74.2,49.5,111.2c12.4,27.9,24.8,55.8,37.2,83.7c0.7,1.7,1.2,3.7,1,5.5
		c-0.5,4.7-3.6,7.6-8.1,8.2c-4.5,0.6-8.1-1.4-10-5.7c-5.2-11.7-10.4-23.4-15.6-35.1c-20.7-46.7-41.4-93.4-62.2-140
		C1062.1,125.3,1061.8,124.7,1061.3,123.7z"/>
	<path class="st0" d="M524.1,123.7c-13.3,29.7-26.4,58.9-39.7,88.5c1.3,0,2.2,0,3,0c13.9,0,27.8,0,41.7,0c4.4,0,7.8,2.4,9.1,6.1
		c1.3,3.8,0.2,8.3-3.2,10.5c-2,1.3-4.6,2-7,2c-16.3,0.2-32.7,0.1-49,0c-2.2,0-3.3,0.6-4.2,2.7c-9.8,22.4-19.8,44.7-29.7,67.1
		c-2.1,4.7-5.7,6.8-10.3,6.1c-6.4-0.9-9.8-7.1-7.2-13.1c4.1-9.4,8.3-18.7,12.5-28c25-55.9,50-111.8,74.9-167.7
		c1.7-3.9,4.5-6.2,8.8-6.2c4.6,0,7.6,2.3,9.5,6.5c15.7,35.3,31.5,70.7,47.2,106c13.1,29.4,26.2,58.8,39.3,88.2c1.1,2.5,1.8,5,1,7.7
		c-1.2,4-4.1,6.3-8.4,6.7c-4.2,0.3-7.5-1.6-9.4-5.7c-5.5-12.4-11-24.8-16.5-37.2c-20.3-45.8-40.7-91.7-61-137.5
		C525.1,125.7,524.7,125,524.1,123.7z"/>
	<path class="st0" d="M1304.5,237c0,34.5-26,64.5-60.1,69.1c-17.6,2.4-34-1.2-48.7-11.4c-5.3-3.7-6-9.5-1.7-14.1
		c3.2-3.4,7.5-3.8,11.8-1c6.3,4.1,13,7.1,20.4,8.3c22.8,3.7,45.1-8,54.9-28.9c14.8-31.5-5.2-68.1-39.6-72.5
		c-5.4-0.7-10.9-0.5-16.1-1.6c-21.8-4.5-37.5-24.7-36.8-46.9c0.6-23.8,17.4-42.6,41-46c18.8-2.7,38.6,7.8,47.6,25.1
		c3.5,6.8,5.5,13.9,5.4,21.6c0,5.2-3.8,9.3-8.7,9.5c-4.9,0.2-9.1-3.4-9.4-8.7c-0.3-6.4-1.7-12.3-5.5-17.6
		c-7.6-10.6-22-14.8-34.3-9.9c-12.2,4.8-19.6,17.7-17.8,30.7c2.1,14.9,13.6,24.8,29,25c30.2,0.5,57.3,20.8,65.9,49.6
		C1303.6,223.6,1304.7,230.2,1304.5,237z"/>
	<path class="st0" d="M689.8,110.4c-27.8,0-55.6,0-83.5,0c-7.1,0-11.5-6-9.4-12.5c1.2-3.6,4.4-6.1,8.2-6.2c0.4,0,0.8,0,1.2,0
		c55.6,0,111.3,0.1,166.9-0.1c6.8,0,11.7,5.8,9.7,12.3c-1.1,3.7-4.2,6.2-8,6.5c-1,0.1-2,0.1-3,0.1
		C744.6,110.4,717.2,110.4,689.8,110.4z"/>
	<path class="st0" d="M680.6,220c0-25.5,0-51,0-76.5c0-4.4,2.2-7.9,5.9-9.2c3.7-1.4,7.8-0.4,10.5,2.6c1.9,2.1,2.4,4.6,2.4,7.4
		c0,37.7,0,75.5,0,113.2c0,13.2,0,26.5,0,39.7c0,4.3-2.6,7.8-6.5,9.1c-4,1.3-8.1,0.3-10.4-3.3c-1.2-1.8-1.9-4.3-1.9-6.5
		C680.5,271,680.6,245.5,680.6,220z"/>
	<path class="st0" d="M889.3,306.8c-12.6,0-25.1,0-37.7,0c-23.5,0-42.4-18.5-43-42c-0.1-5.5,3.7-9.9,8.9-10c5.5-0.1,9.4,3.5,9.6,9.2
		c0.6,14.5,10.8,24.3,25.3,24.3c25.5,0,51,0.1,76.4-0.1c5.9,0,10.3,4.3,10.2,9.3c-0.1,5.6-4.1,9.4-10.3,9.4
		C915.6,306.8,902.5,306.8,889.3,306.8z"/>
	<path class="st0" d="M827.1,161.2c0,19.9-0.1,39.8,0.1,59.7c0.1,5.6-4.3,10.1-9.2,10c-5.5-0.1-9.4-4-9.4-10c0-39.7,0-79.5,0-119.2
		c0-4.7,2.3-8.1,6.3-9.5c3.6-1.3,7.9-0.3,10.1,2.9c1.2,1.8,2.1,4.3,2.1,6.4C827.2,121.3,827.1,141.2,827.1,161.2z"/>
	<path class="st0" d="M1165.1,235.3c0.5-13.4,4.5-25.6,11.8-36.7c2.2-3.4,5.5-4.9,9.5-4.1c4,0.8,6.5,3.6,7.4,7.6
		c0.6,2.7-0.4,5-1.9,7.3c-5.4,8.3-8.4,17.3-8.4,27.3c0,1.3,0.2,2.7,0.3,4c0.5,5.1-3,9.9-7.7,10.7c-5,0.8-9.3-2.4-10.3-7.9
		C1165.3,240.8,1165.3,238,1165.1,235.3z"/>
</g>
<g id="JK5FTG.tif">
	<g>
		<path d="M1141,238c0.9-2.1,1.9-4.1,2.8-6.2c0.1-0.2,0.2-0.5,0.3-0.7c0.8-1.7,0.8-1.7,3.1-1.7c2.1,0,2-0.2,2,2c0,4.3,0,8.6,0,12.8
			c0,0.9-0.2,1.2-1.1,1.1c-1-0.1-2.1,0-3.3,0c0-2.4,0-4.6,0-6.9c-0.1,0-0.1,0-0.2,0c-1.1,2.4-2.3,4.8-3.4,7.2
			c-0.1,0-0.2,0.1-0.3,0.1c-1.1-2.4-2.3-4.7-3.4-7.1c-0.1,0-0.1,0-0.2,0c0,0.5,0,1.1,0,1.6c0,1.4,0,2.9,0,4.3c0,0.5-0.2,0.8-0.7,0.8
			c-1,0-2,0-3,0c-0.6,0-0.7-0.3-0.7-0.8c0-4.8,0-9.6,0-14.3c0-0.7,0.3-0.9,0.9-0.8c0.7,0,1.5,0.1,2.2,0c0.9-0.1,1.4,0.3,1.7,1.1
			C1138.8,233,1139.9,235.5,1141,238z"/>
		<path d="M1169.8,229.5c2.5,0,5-0.2,7.4,0c2.7,0.3,5,1.5,5.9,4.3c0.6,1.8,0.9,3.7,0.3,5.6c-0.3,0.9-0.4,1.8-0.8,2.6
			c-0.9,1.9-2.7,3-4.6,3.1c-2.7,0.3-5.4,0.1-8.2,0.1C1169.8,240,1169.8,234.8,1169.8,229.5z M1174.2,237.4c0,1.1,0,2.1,0,3.2
			c0,0.7,0.4,1.1,1.1,1c0.5,0,0.9-0.2,1.4-0.3c0.8-0.2,1.6-0.5,1.7-1.5c0.2-0.9,0.3-1.8,0.4-2.8c0.2-2.5-1.3-3.9-3.8-3.7
			c-0.6,0.1-0.8,0.3-0.8,0.8C1174.2,235.3,1174.2,236.4,1174.2,237.4z"/>
		<path d="M1157.9,233.5c0,0.4,0,0.7,0,0.9c-0.1,0.7,0.2,1,0.9,0.9c1,0,2,0,3.1,0c0.6,0,0.8,0.2,0.8,0.8c0,0.9,0,1.8,0,2.8
			c-1.6,0-3.1,0-4.7,0c0,0.9,0,1.8,0,2.7c2.6,0,5.1,0,7.8,0c0,1.1,0,2.2,0,3.2c0,0.2-0.6,0.5-0.9,0.5c-2.7,0-5.5,0-8.2,0
			c-1,0-2.1,0-3.2,0c0-0.4-0.1-0.7-0.1-1.1c0-4.6,0-9.2,0-13.7c0-0.9,0.2-1.2,1.2-1.2c3.4,0.1,6.7,0,10.1,0c0.9,0,1.2,0.3,1.1,1.1
			c-0.1,0.6,0,1.1,0,1.7c0,0.8-0.3,1.2-1.2,1.2c-1.8,0-3.7,0-5.5,0C1158.7,233.4,1158.4,233.4,1157.9,233.5z"/>
		<path d="M1212,245.3c-1.6,0-3.1,0.1-4.6-0.1c-0.4,0-0.8-1-0.8-1.5c-0.1-1-0.7-1.2-1.5-1.1c-0.5,0-1.1,0-1.6,0c-2,0-2,0-2.4,1.8
			c-0.2,0.8-0.5,0.9-1.2,0.9c-1.2,0-2.5,0-3.9,0c0.4-1.3,0.8-2.4,1.2-3.5c0.9-2.4,1.8-4.8,2.6-7.2c0.6-1.5,1.1-3.1,1.7-4.6
			c0.1-0.3,0.6-0.5,0.9-0.6c0.7-0.1,1.5,0,2.3,0c1.7,0,1.8,0.1,2.3,1.8c0.7,2.1,1.5,4.1,2.2,6.2C1210.1,240,1211,242.6,1212,245.3z
			 M1204,235.1c-0.1,0-0.1,0-0.2,0c-0.3,1.2-0.6,2.5-1,3.8c0.8,0,1.4,0,2.2,0C1204.7,237.5,1204.4,236.3,1204,235.1z"/>
		<path d="M1187.9,245.3c0-0.3-0.1-0.6-0.1-0.9c0-4.6,0-9.2,0-13.8c0-0.8,0.2-1.2,1.1-1.1c0.9,0.1,1.8,0,2.8,0
			c0.2,0,0.6,0.4,0.6,0.6c0,5,0,10.1,0,15.1c0,0,0,0-0.1,0.1C1190.8,245.3,1189.4,245.3,1187.9,245.3z"/>
	</g>
</g>
<circle cx="1239" cy="238" r="9"/>
</svg>
